<?xml version="1.0" standalone="no"?>
<!DOCTYPE svg PUBLIC "-//W3C//DTD SVG 20010904//EN"
 "http://www.w3.org/TR/2001/REC-SVG-20010904/DTD/svg10.dtd">
<svg version="1.0" xmlns="http://www.w3.org/2000/svg"
 width="260.000000pt" height="260.000000pt" viewBox="0 0 260.000000 260.000000"
 preserveAspectRatio="xMidYMid meet">
<metadata>
Created by potrace 1.11, written by Peter Selinger 2001-2013
</metadata>
<g transform="translate(0.000000,260.000000) scale(0.100000,-0.100000)"
fill="#000000" stroke="none">
<path d="M702 2343 c-7 -3 -19 -18 -27 -33 -13 -25 -15 -163 -15 -1007 0 -871
2 -981 16 -1001 16 -24 67 -54 78 -47 3 3 4 2 2 -1 -3 -3 1 -12 7 -19 10 -11
17 -9 37 8 14 12 19 15 13 7 -7 -8 -13 -17 -13 -20 0 -5 51 -10 108 -10 79 1
112 4 112 12 0 5 -5 6 -10 3 -6 -3 -10 -1 -10 6 0 8 -4 8 -15 -1 -13 -11 -14
-10 -10 2 4 11 20 15 55 14 42 0 47 -2 37 -16 -19 -25 -20 -26 -14 -7 5 12 3
17 -5 15 -18 -6 -21 -25 -4 -31 9 -4 26 3 38 16 13 12 20 18 15 13 -18 -24 -4
-27 21 -5 15 13 21 17 15 9 -7 -8 -13 -17 -13 -20 0 -3 56 -6 125 -6 115 0
147 5 111 19 -7 3 -19 0 -25 -6 -9 -9 -11 -8 -6 4 4 11 17 16 40 16 27 -1 32
-4 23 -14 -18 -22 0 -28 19 -7 10 11 15 15 11 10 -19 -24 -5 -27 20 -5 15 13
21 17 14 9 -23 -26 -12 -34 14 -9 l27 24 -19 -30 c-13 -21 -14 -27 -4 -20 8 6
40 9 70 8 74 -4 69 -4 118 0 23 2 48 0 55 -5 7 -4 24 4 42 20 16 15 24 20 18
12 -24 -27 -13 -34 15 -9 15 13 21 17 15 9 -7 -8 -13 -17 -13 -20 0 -4 36 -6
80 -6 103 1 115 12 116 101 0 68 -2 73 -26 53 -8 -7 -4 -1 9 14 25 28 18 39
-9 16 -8 -7 -4 -1 9 14 15 17 19 28 12 28 -10 0 -11 3 -2 14 9 10 8 15 -2 19
-10 4 -13 -2 -11 -19 1 -13 -1 -26 -5 -28 -4 -3 -7 24 -7 59 -1 48 3 66 14 70
12 4 13 3 2 -10 -11 -13 -10 -14 2 -10 11 5 15 26 14 100 0 52 -3 95 -6 95 -3
0 -12 -6 -20 -13 -8 -6 -4 0 9 16 25 27 18 38 -9 14 -8 -6 -4 0 9 16 15 16 19
27 12 27 -10 0 -11 3 -2 14 9 11 9 15 -1 19 -10 4 -10 6 0 6 6 1 12 6 12 12 0
8 -4 8 -14 0 -7 -6 -12 -22 -11 -36 2 -14 0 -27 -4 -29 -4 -3 -7 24 -7 59 -1
48 3 66 14 70 12 4 13 3 2 -10 -11 -13 -10 -14 2 -10 11 5 15 24 14 85 0 44
-3 80 -6 80 -3 0 -12 -6 -20 -13 -8 -6 -4 0 9 15 25 28 18 39 -9 16 -8 -7 -4
-1 9 15 15 16 19 27 12 27 -11 0 -11 3 -1 15 10 12 10 15 0 15 -9 0 -10 3 -1
14 9 10 8 15 -2 19 -9 3 -13 -6 -11 -34 1 -22 -2 -41 -5 -44 -4 -2 -7 32 -7
75 -1 61 3 80 14 85 12 4 13 3 2 -10 -11 -13 -10 -14 2 -10 11 5 15 22 14 70
0 68 -3 73 -26 53 -8 -7 -4 -1 9 15 25 27 18 38 -9 15 -8 -7 -4 -1 9 15 23 25
18 40 -5 17 -7 -7 -10 27 -10 100 0 87 2 110 14 115 12 4 13 3 2 -10 -10 -12
-10 -15 0 -15 10 0 10 -3 0 -15 -11 -13 -10 -14 2 -10 11 5 15 22 14 70 0 68
-3 73 -26 53 -8 -7 -4 -1 9 15 25 27 18 38 -9 15 -8 -7 -4 -1 9 15 23 25 18
40 -5 17 -7 -7 -10 23 -10 94 1 76 5 109 15 118 10 10 12 10 7 1 -4 -7 -3 -13
2 -13 5 0 9 16 9 35 -1 38 -5 42 -27 23 -8 -7 -4 -1 9 15 25 27 18 38 -9 15
-8 -7 -4 -1 9 15 15 16 19 27 12 27 -11 0 -11 3 -1 15 10 12 10 15 0 15 -10 0
-10 3 0 15 10 12 10 15 0 15 -9 0 -9 4 1 18 12 15 12 16 -2 5 -9 -8 -15 -27
-14 -53 1 -23 -3 -44 -9 -47 -5 -3 -6 -1 -2 5 4 7 2 12 -5 12 -7 0 -8 4 -2 13
5 6 8 37 7 67 -1 30 4 61 10 69 8 11 8 13 0 8 -7 -4 -14 3 -18 18 -4 14 -15
34 -26 45 -19 19 -35 20 -612 19 -326 0 -599 -3 -606 -6z m1208 -23 c20 -20
20 -33 20 -1012 0 -908 -1 -993 -17 -1010 -15 -17 -47 -18 -606 -18 -535 0
-592 2 -609 17 -17 15 -18 60 -18 1010 0 980 0 993 20 1013 20 20 33 20 605
20 572 0 585 0 605 -20z m70 -294 c0 -2 -8 -10 -17 -17 -16 -13 -17 -12 -4 4
13 16 21 21 21 13z m0 -320 c0 -2 -8 -10 -17 -17 -16 -13 -17 -12 -4 4 13 16
21 21 21 13z m0 -30 c0 -2 -8 -10 -17 -17 -16 -13 -17 -12 -4 4 13 16 21 21
21 13z m0 -320 c0 -2 -8 -10 -17 -17 -16 -13 -17 -12 -4 4 13 16 21 21 21 13z
m0 -30 c0 -2 -8 -10 -17 -17 -16 -13 -17 -12 -4 4 13 16 21 21 21 13z m0 -30
c0 -2 -8 -10 -17 -17 -16 -13 -17 -12 -4 4 13 16 21 21 21 13z m0 -260 c0 -2
-8 -10 -17 -17 -16 -13 -17 -12 -4 4 13 16 21 21 21 13z m0 -30 c0 -2 -8 -10
-17 -17 -16 -13 -17 -12 -4 4 13 16 21 21 21 13z m0 -30 c0 -2 -8 -10 -17 -17
-16 -13 -17 -12 -4 4 13 16 21 21 21 13z m-10 -41 c-7 -9 -15 -13 -19 -10 -3
3 1 10 9 15 21 14 24 12 10 -5z m10 -219 c0 -2 -8 -10 -17 -17 -16 -13 -17
-12 -4 4 13 16 21 21 21 13z m0 -30 c0 -2 -8 -10 -17 -17 -16 -13 -17 -12 -4
4 13 16 21 21 21 13z m0 -30 c0 -2 -8 -10 -17 -17 -16 -13 -17 -12 -4 4 13 16
21 21 21 13z m0 -30 c0 -2 -8 -10 -17 -17 -16 -13 -17 -12 -4 4 13 16 21 21
21 13z m0 -30 c0 -2 -8 -10 -17 -17 -16 -13 -17 -12 -4 4 13 16 21 21 21 13z
m0 -230 c0 -2 -8 -10 -17 -17 -16 -13 -17 -12 -4 4 13 16 21 21 21 13z m0 -29
c0 -1 -26 -27 -57 -57 l-58 -55 55 58 c50 53 60 62 60 54z m0 -30 c0 -2 -19
-21 -42 -42 l-43 -40 40 43 c36 39 45 47 45 39z m0 -30 c0 -2 -12 -14 -27 -28
l-28 -24 24 28 c23 25 31 32 31 24z m-1130 -21 c0 -2 -8 -10 -17 -17 -16 -13
-17 -12 -4 4 13 16 21 21 21 13z m30 0 c0 -2 -8 -10 -17 -17 -16 -13 -17 -12
-4 4 13 16 21 21 21 13z m30 0 c0 -2 -8 -10 -17 -17 -16 -13 -17 -12 -4 4 13
16 21 21 21 13z m30 1 c0 -2 -10 -12 -22 -23 l-23 -19 19 23 c18 21 26 27 26
19z m30 -1 c0 -2 -8 -10 -17 -17 -16 -13 -17 -12 -4 4 13 16 21 21 21 13z
m200 0 c0 -2 -8 -10 -17 -17 -16 -13 -17 -12 -4 4 13 16 21 21 21 13z m30 0
c0 -2 -8 -10 -17 -17 -16 -13 -17 -12 -4 4 13 16 21 21 21 13z m30 0 c0 -2 -8
-10 -17 -17 -16 -13 -17 -12 -4 4 13 16 21 21 21 13z m30 0 c0 -2 -8 -10 -17
-17 -16 -13 -17 -12 -4 4 13 16 21 21 21 13z m30 0 c0 -2 -8 -10 -17 -17 -16
-13 -17 -12 -4 4 13 16 21 21 21 13z m30 0 c0 -2 -7 -9 -15 -16 -13 -11 -14
-10 -9 4 5 14 24 23 24 12z m200 0 c0 -2 -8 -10 -17 -17 -16 -13 -17 -12 -4 4
13 16 21 21 21 13z m30 0 c0 -2 -8 -10 -17 -17 -16 -13 -17 -12 -4 4 13 16 21
21 21 13z m30 0 c0 -2 -8 -10 -17 -17 -16 -13 -17 -12 -4 4 13 16 21 21 21 13z
m30 0 c0 -2 -8 -10 -17 -17 -16 -13 -17 -12 -4 4 13 16 21 21 21 13z m30 1 c0
-2 -10 -12 -21 -23 -22 -19 -22 -19 -8 4 12 19 29 30 29 19z m30 -1 c0 -2 -7
-9 -15 -16 -13 -11 -14 -10 -9 4 5 14 24 23 24 12z m66 -18 c-6 -10 -12 -14
-14 -8 -2 6 -8 8 -13 4 -5 -3 -9 0 -9 7 0 8 -4 8 -15 -1 -13 -11 -14 -10 -10
2 4 10 18 15 39 15 30 -1 32 -3 22 -19z m104 18 c0 -2 -8 -10 -17 -17 -16 -13
-17 -12 -4 4 13 16 21 21 21 13z m30 0 c0 -2 -8 -10 -17 -17 -16 -13 -17 -12
-4 4 13 16 21 21 21 13z"/>
<path d="M842 2170 c-60 -37 -73 -72 -70 -187 3 -114 17 -144 79 -175 31 -16
74 -18 454 -18 380 0 423 2 454 18 62 31 76 61 79 175 3 115 -10 150 -70 187
-32 19 -52 20 -463 20 -411 0 -431 -1 -463 -20z m917 -8 c53 -29 71 -72 71
-173 0 -73 -3 -91 -23 -120 -46 -69 -45 -69 -502 -69 -457 0 -456 0 -502 69
-20 29 -23 47 -23 120 0 101 18 144 71 173 31 17 66 18 454 18 388 0 423 -1
454 -18z"/>
<path d="M1664 2102 c-39 -26 -48 -152 -13 -196 21 -27 56 -34 89 -16 41 22
53 133 20 188 -16 26 -26 32 -52 32 -18 0 -38 -4 -44 -8z m73 -42 c39 -78 -12
-198 -59 -140 -24 30 -25 132 -2 155 22 21 46 15 61 -15z"/>
<path d="M824 1736 c-29 -29 -34 -41 -34 -79 0 -50 24 -88 70 -112 41 -21 584
-22 634 -1 49 20 76 60 76 113 0 38 -5 50 -34 79 l-34 34 -322 0 -322 0 -34
-34z m702 -10 c37 -37 44 -74 22 -121 -24 -53 -41 -55 -375 -55 -277 0 -310 2
-329 18 -44 35 -56 94 -30 141 27 48 40 50 370 51 l308 0 34 -34z"/>
<path d="M1103 1655 c0 -33 2 -45 4 -27 2 18 2 45 0 60 -2 15 -4 0 -4 -33z"/>
<path d="M1024 1655 c-11 -44 29 -72 56 -40 8 9 8 15 2 15 -6 0 -12 -5 -14
-12 -7 -20 -28 2 -28 29 0 22 3 24 26 19 17 -5 23 -3 19 4 -3 5 -17 10 -30 10
-18 0 -26 -7 -31 -25z"/>
<path d="M1134 1656 c-4 -16 -1 -32 7 -42 15 -18 51 -15 57 6 5 13 3 13 -11 2
-9 -8 -21 -11 -27 -7 -19 11 -10 25 16 25 36 0 29 34 -8 38 -22 3 -29 -2 -34
-22z m51 4 c3 -5 -3 -10 -14 -10 -12 0 -21 5 -21 10 0 6 6 10 14 10 8 0 18 -4
21 -10z"/>
<path d="M1226 1671 c-3 -4 6 -6 19 -3 15 2 25 0 25 -7 0 -6 -8 -11 -19 -11
-23 0 -42 -22 -32 -38 4 -7 19 -11 34 -10 24 2 27 6 27 40 0 34 -3 38 -24 38
-14 0 -27 -4 -30 -9z m44 -40 c0 -10 -30 -24 -37 -17 -3 3 -2 9 2 15 8 13 35
15 35 2z"/>
<path d="M1300 1640 c0 -22 5 -40 10 -40 6 0 10 15 10 34 0 19 6 37 13 39 6 3
2 6 -10 6 -20 1 -23 -4 -23 -39z"/>
<path d="M1644 1736 c-29 -29 -34 -41 -34 -79 0 -109 124 -162 199 -85 36 37
45 79 27 122 -20 49 -61 76 -113 76 -38 0 -50 -5 -79 -34z m129 13 c38 -19 57
-51 57 -97 0 -36 -5 -49 -31 -73 -71 -66 -179 -16 -179 82 0 43 56 99 100 99
17 0 41 -5 53 -11z"/>
<path d="M1708 1653 c12 -2 30 -2 40 0 9 3 -1 5 -23 4 -22 0 -30 -2 -17 -4z"/>
<path d="M848 1484 c-77 -41 -75 -162 2 -208 62 -36 144 -3 169 69 12 35 11
45 -2 77 -28 67 -107 96 -169 62z m135 -34 c73 -82 -14 -209 -115 -167 -44 18
-59 38 -65 85 -14 104 109 160 180 82z"/>
<path d="M870 1430 c0 -5 11 -10 25 -10 25 0 25 -1 10 -30 -8 -16 -15 -37 -15
-47 0 -10 11 6 25 35 14 30 25 56 25 58 0 2 -16 4 -35 4 -19 0 -35 -4 -35 -10z"/>
<path d="M1135 1491 c-45 -20 -70 -60 -70 -112 0 -42 5 -53 33 -81 28 -28 39
-33 82 -33 66 0 110 40 117 108 5 40 2 48 -28 81 -36 40 -93 55 -134 37z m102
-21 c70 -42 63 -149 -13 -185 -89 -42 -185 56 -140 144 30 58 96 76 153 41z"/>
<path d="M1154 1425 c-4 -8 -4 -21 -1 -29 3 -7 1 -18 -5 -24 -14 -14 7 -42 32
-42 26 0 45 27 31 44 -6 7 -8 21 -5 31 4 10 1 21 -7 26 -21 13 -39 11 -45 -6z
m46 -15 c0 -5 -5 -12 -11 -16 -14 -8 -33 11 -25 25 7 11 36 4 36 -9z m-5 -50
c0 -22 -29 -18 -33 3 -3 14 1 18 15 15 10 -2 18 -10 18 -18z"/>
<path d="M1392 1480 c-19 -12 -40 -37 -49 -58 -13 -32 -14 -42 -2 -77 31 -90
132 -111 196 -41 52 57 42 134 -23 177 -37 24 -80 24 -122 -1z m119 -13 c70
-47 60 -151 -18 -183 -44 -19 -77 -12 -114 26 -23 23 -29 37 -29 72 1 49 14
71 56 93 40 21 65 19 105 -8z"/>
<path d="M1432 1431 c-22 -13 -11 -56 16 -59 23 -4 29 -16 12 -27 -6 -4 -18
-1 -27 7 -14 11 -15 11 -11 -2 2 -8 15 -15 29 -15 31 0 48 43 31 80 -12 26
-27 31 -50 16z m38 -32 c0 -20 -24 -26 -35 -9 -8 13 14 42 26 34 5 -3 9 -14 9
-25z"/>
<path d="M1668 1484 c-52 -27 -74 -109 -44 -162 18 -33 66 -62 102 -62 46 0
97 39 113 85 12 35 11 45 -2 77 -28 67 -107 96 -169 62z m135 -34 c50 -56 31
-137 -40 -167 -68 -28 -143 23 -143 97 0 99 116 143 183 70z"/>
<path d="M1699 1396 c6 -7 8 -22 4 -32 -6 -16 -5 -17 9 -6 11 9 18 10 23 2 3
-5 11 -10 17 -10 7 0 6 6 -2 15 -10 12 -10 18 0 30 14 17 0 21 -17 4 -8 -8
-13 -8 -17 0 -4 6 -12 11 -18 11 -7 0 -7 -5 1 -14z"/>
<path d="M864 1216 c-66 -30 -92 -102 -60 -165 49 -94 186 -76 217 28 27 90
-71 176 -157 137z m124 -41 c41 -48 25 -130 -33 -160 -66 -36 -155 15 -155 88
0 102 121 148 188 72z"/>
<path d="M891 1131 c-26 -36 -27 -51 -2 -51 11 0 22 -6 24 -12 10 -25 23 10
19 52 -5 48 -14 50 -41 11z m15 -38 c-11 -11 -19 6 -11 24 8 17 8 17 12 0 3
-10 2 -21 -1 -24z"/>
<path d="M1133 1215 c-36 -16 -73 -68 -73 -103 0 -64 57 -122 120 -122 63 0
120 58 120 122 0 36 -37 88 -75 104 -42 17 -51 17 -92 -1z m115 -30 c38 -32
48 -72 28 -118 -15 -37 -58 -67 -96 -67 -35 0 -79 28 -96 62 -20 39 -12 83 23
120 36 38 98 39 141 3z"/>
<path d="M1157 1153 c-4 -3 -7 -15 -7 -25 0 -13 7 -18 25 -18 19 0 25 -5 25
-21 0 -19 -4 -21 -32 -15 -31 5 -32 5 -14 -9 25 -19 29 -19 50 4 22 24 6 61
-26 61 -25 0 -14 15 17 23 16 4 15 5 -6 6 -14 0 -29 -2 -32 -6z"/>
<path d="M1401 1212 c-20 -10 -43 -33 -54 -55 -17 -33 -18 -44 -8 -77 15 -51
62 -90 107 -90 135 0 172 174 48 226 -43 18 -52 18 -93 -4z m115 -20 c72 -58
47 -171 -42 -188 -71 -13 -124 33 -124 106 0 59 42 100 102 100 26 0 52 -7 64
-18z"/>
<path d="M1437 1159 c-11 -7 -17 -22 -17 -48 0 -47 20 -67 49 -51 38 20 16 79
-24 64 -13 -5 -16 -3 -13 7 3 8 16 13 32 12 30 -2 33 3 8 16 -11 6 -24 6 -35
0z m33 -69 c0 -21 -24 -28 -35 -10 -8 14 3 30 21 30 8 0 14 -9 14 -20z"/>
<path d="M1693 1223 c-36 -7 -83 -69 -83 -109 0 -143 190 -172 231 -35 25 84
-57 163 -148 144z m108 -42 c23 -23 29 -38 29 -71 0 -35 -6 -48 -35 -77 -32
-32 -39 -35 -78 -30 -79 11 -119 86 -82 157 20 38 41 49 93 50 35 0 49 -6 73
-29z"/>
<path d="M1690 1110 c0 -5 16 -10 35 -10 19 0 35 5 35 10 0 6 -16 10 -35 10
-19 0 -35 -4 -35 -10z"/>
<path d="M824 916 c-29 -29 -34 -41 -34 -79 0 -54 33 -100 84 -117 27 -9 42
-8 74 5 124 50 89 225 -45 225 -38 0 -50 -5 -79 -34z m129 13 c38 -19 57 -51
57 -97 0 -36 -5 -49 -31 -73 -71 -66 -179 -16 -179 82 0 43 56 99 100 99 17 0
41 -5 53 -11z"/>
<path d="M898 876 c-22 -16 -23 -27 -4 -20 11 4 16 -5 19 -38 3 -38 4 -37 5
15 1 31 1 57 0 57 -2 0 -11 -7 -20 -14z"/>
<path d="M1118 934 c-87 -46 -69 -179 27 -213 35 -12 45 -11 77 2 70 29 98
112 59 171 -36 55 -106 72 -163 40z m125 -14 c36 -29 52 -83 37 -121 -31 -73
-114 -92 -172 -40 -28 25 -33 36 -33 76 0 40 5 51 33 76 40 36 96 39 135 9z"/>
<path d="M1150 875 c-15 -18 0 -21 18 -3 9 9 15 9 24 0 9 -9 5 -19 -20 -45
-18 -18 -32 -36 -32 -40 0 -4 16 -7 35 -7 19 0 35 5 35 10 0 6 -10 10 -22 10
l-21 0 22 24 c13 13 21 32 19 43 -4 23 -41 29 -58 8z"/>
<path d="M1381 925 c-46 -39 -57 -84 -33 -138 38 -85 136 -98 196 -26 63 75
10 189 -87 189 -34 0 -53 -6 -76 -25z m145 -19 c26 -26 34 -42 34 -71 0 -55
-52 -105 -110 -105 -58 0 -100 41 -100 100 0 51 12 75 48 94 47 26 90 20 128
-18z"/>
<path d="M1427 884 c-14 -14 -7 -26 8 -14 12 10 19 10 28 1 9 -9 9 -14 -3 -22
-11 -8 -12 -12 -2 -16 15 -6 16 -29 2 -38 -6 -4 -18 -1 -27 7 -14 11 -16 11
-11 -2 2 -8 14 -16 25 -18 26 -4 48 22 38 45 -4 10 -8 27 -9 38 -1 20 -35 33
-49 19z"/>
<path d="M1644 916 c-29 -29 -34 -41 -34 -79 0 -130 164 -167 221 -51 26 55
20 85 -26 131 -28 28 -40 33 -80 33 -40 0 -52 -5 -81 -34z m129 13 c38 -19 57
-51 57 -97 0 -36 -5 -49 -31 -73 -71 -66 -179 -16 -179 82 0 43 56 99 100 99
17 0 41 -5 53 -11z"/>
<path d="M1721 858 c0 -9 -9 -19 -18 -21 -16 -4 -16 -5 -1 -6 9 0 19 -9 21
-18 4 -16 5 -16 6 -1 0 9 9 19 19 21 15 4 15 5 0 6 -9 0 -19 9 -21 19 -4 15
-5 15 -6 0z"/>
<path d="M848 664 c-76 -41 -77 -158 -2 -205 31 -19 47 -20 209 -17 l175 3 31
31 c23 23 33 44 36 78 5 43 3 48 -35 86 l-40 40 -173 0 c-134 -1 -180 -4 -201
-16z m389 -14 c45 -27 62 -84 38 -133 -27 -57 -60 -67 -229 -67 -158 0 -200 9
-230 51 -35 50 -9 136 48 159 11 5 93 9 181 9 142 1 164 -1 192 -19z"/>
<path d="M1022 608 c-18 -18 -15 -87 4 -95 39 -15 68 42 44 87 -12 23 -30 26
-48 8z m36 -49 c-2 -22 -8 -34 -18 -34 -19 0 -26 51 -9 71 18 21 31 3 27 -37z"/>
<path d="M1404 670 c-28 -11 -61 -54 -69 -89 -9 -41 18 -97 57 -121 49 -31
103 -22 145 24 87 94 -14 234 -133 186z m107 -23 c70 -47 60 -151 -17 -183
-71 -30 -144 21 -144 100 1 47 14 69 56 91 40 21 65 19 105 -8z"/>
<path d="M1445 520 c-3 -5 -1 -10 4 -10 6 0 11 5 11 10 0 6 -2 10 -4 10 -3 0
-8 -4 -11 -10z"/>
<path d="M1668 664 c-77 -41 -75 -162 2 -208 62 -36 144 -3 169 69 12 35 11
45 -2 77 -28 67 -107 96 -169 62z m135 -34 c50 -56 31 -137 -40 -167 -68 -28
-143 23 -143 97 0 99 116 143 183 70z"/>
<path d="M1690 580 c0 -5 16 -10 35 -10 19 0 35 5 35 10 0 6 -16 10 -35 10
-19 0 -35 -4 -35 -10z"/>
<path d="M1708 543 c12 -2 30 -2 40 0 9 3 -1 5 -23 4 -22 0 -30 -2 -17 -4z"/>
<path d="M1969 2213 c-13 -16 -12 -17 4 -4 9 7 17 15 17 17 0 8 -8 3 -21 -13z"/>
<path d="M1970 1955 c-11 -13 -10 -14 4 -9 9 3 16 10 16 15 0 13 -6 11 -20 -6z"/>
<path d="M1970 1925 c-11 -13 -10 -14 4 -9 9 3 16 10 16 15 0 13 -6 11 -20 -6z"/>
<path d="M1969 1893 c-13 -16 -12 -17 4 -4 9 7 17 15 17 17 0 8 -8 3 -21 -13z"/>
<path d="M1969 1863 c-13 -16 -12 -17 4 -4 9 7 17 15 17 17 0 8 -8 3 -21 -13z"/>
<path d="M1973 1838 c-4 -7 -9 -21 -10 -32 -3 -16 -1 -17 13 -5 11 9 12 15 5
17 -9 3 -9 7 0 18 6 8 9 14 6 14 -3 0 -9 -6 -14 -12z"/>
<path d="M1970 1575 c-11 -13 -10 -14 4 -9 9 3 16 10 16 15 0 13 -6 11 -20 -6z"/>
<path d="M1974 1549 c-4 -7 -8 -34 -9 -61 -2 -41 0 -46 13 -36 10 8 11 13 3
16 -9 3 -9 7 0 18 9 11 9 14 -1 14 -10 0 -10 3 0 15 10 12 10 15 -1 15 -11 0
-11 2 1 10 8 5 12 12 8 15 -3 4 -9 1 -14 -6z"/>
<path d="M1972 1227 c-12 -14 2 -47 15 -34 4 5 1 12 -6 16 -11 7 -11 9 0 13 8
3 11 8 8 12 -3 4 -11 1 -17 -7z"/>
<path d="M1970 875 c-11 -13 -10 -14 4 -9 9 3 16 10 16 15 0 13 -6 11 -20 -6z"/>
<path d="M1972 527 c-12 -14 2 -47 15 -34 4 5 1 12 -6 16 -11 7 -11 9 0 13 8
3 11 8 8 12 -3 4 -11 1 -17 -7z"/>
</g>
</svg>
